<?xml version="1.0" standalone="no"?>
<!DOCTYPE svg PUBLIC "-//W3C//DTD SVG 20010904//EN"
 "http://www.w3.org/TR/2001/REC-SVG-20010904/DTD/svg10.dtd">
<svg version="1.0" xmlns="http://www.w3.org/2000/svg"
 width="768.000000pt" height="768.000000pt" viewBox="0 0 768.000000 768.000000"
 preserveAspectRatio="xMidYMid meet">
<metadata>
Created by potrace 1.14, written by Peter Selinger 2001-2017
</metadata>
<g transform="translate(0.000000,768.000000) scale(0.100000,-0.100000)"
fill="#000000" stroke="none">
<path d="M0 3840 l0 -3840 3840 0 3840 0 0 3840 0 3840 -3840 0 -3840 0 0
-3840z m5250 -3564 c0 -20 4 -23 28 -18 20 3 24 2 16 -7 -6 -7 -20 -13 -30
-13 -16 -2 -19 -8 -16 -35 3 -20 0 -33 -7 -33 -7 0 -11 24 -11 65 0 37 4 65
10 65 6 0 10 -11 10 -24z m478 16 c-36 -88 -63 -142 -70 -142 -4 0 -1 17 8 38
8 20 22 54 31 75 8 20 20 37 25 37 5 0 8 -4 6 -8z m319 -52 c-1 -32 -1 -57 1
-55 3 2 13 0 23 -6 15 -8 19 -6 19 6 0 10 5 13 12 9 8 -5 9 -2 5 9 -3 9 -2 19
3 22 6 4 10 -2 10 -13 0 -29 -31 -51 -62 -45 -27 5 -28 7 -28 69 0 36 4 64 10
64 6 0 9 -25 7 -60z m99 0 c-2 -33 1 -61 6 -64 5 -2 3 -3 -4 -2 -15 3 -24 126
-9 126 5 0 8 -26 7 -60z m194 56 c0 -3 -4 -8 -10 -11 -5 -3 -10 -1 -10 4 0 6
5 11 10 11 6 0 10 -2 10 -4z m104 -10 c-19 -15 -19 -15 1 -30 18 -14 18 -15 3
-16 -14 0 -18 -8 -18 -35 0 -19 -4 -35 -10 -35 -5 0 -10 25 -10 55 0 32 4 55
11 55 5 0 7 5 4 10 -3 6 4 10 16 10 22 0 22 0 3 -14z m55 -2 c-10 -13 -10 -17
2 -26 11 -7 11 -11 2 -15 -7 -2 -13 -21 -13 -41 0 -19 -3 -32 -7 -28 -7 7 -11
105 -5 119 2 4 10 7 19 7 13 0 13 -3 2 -16z m649 -8 c-4 -20 -1 -23 21 -22 14
0 27 -3 28 -9 2 -5 -9 -9 -25 -9 -23 1 -27 -3 -28 -28 -1 -16 1 -26 4 -24 2 3
13 1 23 -5 15 -8 19 -6 19 6 0 10 5 13 12 9 8 -5 9 -2 5 9 -3 9 -2 19 3 22 6
4 10 -2 10 -13 0 -29 -31 -51 -62 -45 -27 5 -28 7 -28 69 0 40 4 64 11 64 7 0
9 -10 7 -24z m-1748 10 c0 -3 -4 -8 -10 -11 -5 -3 -10 -1 -10 4 0 6 5 11 10
11 6 0 10 -2 10 -4z m400 0 c0 -15 -62 -138 -67 -133 -8 9 46 137 58 137 5 0
9 -2 9 -4z m100 -10 c0 -8 6 -17 13 -20 10 -5 10 -7 0 -12 -7 -3 -13 -21 -13
-40 0 -21 -4 -33 -10 -29 -5 3 -10 31 -10 61 0 30 5 54 10 54 6 0 10 -6 10
-14z m490 4 c0 -5 -4 -10 -10 -10 -5 0 -10 5 -10 10 0 6 5 10 10 10 6 0 10 -4
10 -10z m330 0 c0 -5 -4 -10 -10 -10 -5 0 -10 5 -10 10 0 6 5 10 10 10 6 0 10
-4 10 -10z m-1358 -38 c-16 -5 -16 -59 1 -65 6 -3 2 -5 -9 -4 -22 1 -23 14
-15 100 1 5 9 1 18 -9 13 -13 14 -19 5 -22z m68 7 c0 -5 -7 -9 -15 -9 -8 0
-15 7 -15 15 0 9 6 12 15 9 8 -4 15 -10 15 -15z m897 2 c1 -13 -3 -17 -17 -14
-23 6 -34 -12 -25 -44 6 -24 7 -25 25 -8 13 12 20 14 20 6 0 -7 5 -9 10 -6 6
3 10 2 10 -3 0 -10 -49 -21 -68 -14 -7 2 -10 8 -6 13 3 5 0 9 -5 9 -15 0 -14
45 2 58 6 5 21 12 32 15 11 2 20 5 20 6 1 0 1 -7 2 -18z m-815 -5 c-2 -5 2
-12 8 -16 7 -4 10 -16 8 -26 -4 -16 -7 -14 -16 9 -9 21 -18 27 -34 25 -20 -3
-24 -11 -29 -58 l-6 -55 -1 67 -2 66 38 -1 c20 -1 35 -6 34 -11z m94 3 c5 -8
-2 -10 -23 -7 -24 3 -29 1 -26 -13 3 -11 11 -15 24 -12 23 6 37 -23 19 -40
-10 -10 -12 -8 -8 9 4 17 2 20 -11 17 -21 -5 -45 21 -37 42 6 18 52 20 62 4z
m251 -6 c3 -7 -3 -9 -16 -6 -15 4 -21 1 -21 -11 0 -9 6 -13 13 -10 8 3 19 -2
26 -10 11 -13 8 -14 -21 -6 -18 6 -34 10 -35 10 -2 0 1 27 6 48 2 9 45 -5 48
-15z m154 -30 c3 -24 3 -41 1 -38 -2 2 -15 0 -28 -5 -16 -6 -24 -6 -24 1 0 6
-4 8 -9 4 -5 -3 -13 -1 -16 5 -9 15 13 40 35 40 10 0 20 6 23 14 5 11 0 13
-24 6 -16 -5 -29 -5 -29 -1 0 15 15 22 40 19 21 -3 26 -9 31 -45z m92 41 c12
-13 -3 -21 -28 -17 -13 3 -22 9 -19 14 6 10 38 12 47 3z m137 -9 c18 -21 5
-45 -24 -45 -14 0 -28 -6 -32 -12 -4 -7 -4 -10 1 -6 4 4 16 3 26 -3 13 -6 19
-6 19 1 0 5 5 10 11 10 8 0 8 -5 -1 -15 -14 -17 -40 -20 -40 -5 0 6 -6 9 -12
8 -17 -4 -23 49 -7 68 15 18 43 18 59 -1z m150 -30 c0 -25 -4 -45 -8 -45 -5 0
-8 20 -8 45 1 25 4 45 8 45 5 0 8 -20 8 -45z m152 -2 c3 -43 4 -46 19 -30 9 9
18 14 21 12 2 -2 2 11 0 30 -3 21 0 35 7 35 6 0 11 -18 11 -44 0 -40 -2 -44
-27 -49 -38 -7 -53 8 -53 54 0 55 18 48 22 -8z m133 37 c4 -6 -7 -10 -25 -10
-18 0 -29 4 -25 10 3 6 15 10 25 10 10 0 22 -4 25 -10z m45 -35 c0 -25 -4 -45
-10 -45 -5 0 -10 20 -10 45 0 25 5 45 10 45 6 0 10 -20 10 -45z m84 36 c9 -14
-5 -20 -28 -11 -20 7 -21 5 -18 -27 4 -28 8 -34 23 -30 11 3 21 2 24 -3 7 -11
-30 -19 -46 -9 -14 8 -22 54 -14 77 5 14 51 17 59 3z m104 -38 c2 -28 -1 -43
-8 -43 -8 0 -11 14 -8 39 3 31 0 38 -12 33 -8 -3 -18 -10 -22 -16 -5 -7 -8 -3
-9 9 -1 11 -5 0 -9 -25 l-7 -45 -1 47 -2 46 38 -1 c36 -2 37 -3 40 -44z m32
38 c0 -6 -4 -13 -10 -16 -5 -3 -10 1 -10 9 0 9 5 16 10 16 6 0 10 -4 10 -9z
m90 -18 c0 -20 -3 -24 -11 -16 -7 7 -9 19 -6 27 10 24 17 19 17 -11z m80 12
c18 -21 5 -45 -24 -45 -14 0 -28 -6 -32 -12 -4 -7 -4 -10 1 -6 4 4 16 3 26 -2
12 -7 19 -6 22 3 4 9 6 9 6 -1 1 -18 -29 -28 -39 -13 -4 7 -11 11 -16 9 -14
-5 -17 52 -3 68 15 18 43 18 59 -1z m217 -1 c2 -7 -5 -10 -20 -7 -21 4 -25 0
-29 -27 -5 -30 -4 -32 24 -26 15 3 28 2 28 -3 0 -14 -23 -19 -47 -10 -26 9
-32 56 -11 77 15 15 50 12 55 -4z m87 8 c2 -4 1 -14 -5 -22 -5 -8 -9 -10 -9
-4 0 7 -8 14 -18 16 -15 4 -17 0 -14 -29 4 -34 32 -48 32 -15 0 14 2 15 10 2
13 -20 -16 -43 -38 -31 -14 8 -24 65 -15 84 5 10 51 9 57 -1z m154 -39 c2 -28
-1 -43 -8 -43 -8 0 -11 14 -8 38 3 33 1 38 -14 34 -13 -3 -18 -15 -19 -41 l-2
-36 -6 35 c-5 29 -10 35 -33 36 -25 1 -26 -1 -22 -32 2 -19 -1 -34 -6 -34 -6
0 -10 20 -10 44 l0 43 63 -1 62 -1 3 -42z m-1918 25 c0 -4 -4 -8 -9 -8 -6 0
-12 4 -15 8 -3 5 1 9 9 9 8 0 15 -4 15 -9z m1340 -19 c0 -10 5 -18 12 -16 6 1
13 -6 15 -15 5 -20 -24 -18 -38 3 -5 8 -9 9 -9 3 0 -7 -6 -14 -14 -17 -11 -4
-11 -1 -2 19 6 13 14 24 18 24 4 0 4 7 1 17 -4 11 -3 14 5 9 7 -4 12 -16 12
-27z m-1680 -14 c0 -19 -4 -35 -10 -35 -5 0 -10 16 -10 35 0 19 5 35 10 35 6
0 10 -16 10 -35z m1345 16 c21 -8 27 -41 10 -53 -14 -11 -25 -10 -25 3 0 5 5
7 10 4 6 -3 10 1 10 9 0 8 -9 18 -20 21 -11 3 -20 11 -20 16 0 11 7 11 35 0z
m165 -13 c0 -18 -2 -20 -9 -8 -6 8 -7 18 -5 22 9 14 14 9 14 -14z m126 -15
c-11 -11 -19 6 -11 24 8 17 8 17 12 0 3 -10 2 -21 -1 -24z m-1522 -15 c6 -4 1
-6 -10 -6 -16 2 -20 7 -16 22 4 15 7 17 10 6 3 -8 10 -18 16 -22z m76 2 c0 6
5 8 11 4 8 -5 7 -9 -4 -15 -17 -10 -47 -2 -47 12 0 6 9 5 20 -1 14 -8 20 -8
20 0z m64 4 c23 -9 20 -23 -4 -17 -11 3 -20 9 -20 14 0 11 3 11 24 3z m80 -15
c-3 -5 -10 -7 -15 -3 -5 3 -7 10 -3 15 3 5 10 7 15 3 5 -3 7 -10 3 -15z m184
9 c9 -9 12 -9 12 1 0 7 5 9 11 5 8 -5 8 -9 -1 -14 -15 -9 -50 -1 -50 11 0 13
14 11 28 -3z m802 2 c0 -5 -2 -10 -4 -10 -3 0 -8 5 -11 10 -3 6 -1 10 4 10 6
0 11 -4 11 -10z m620 2 c0 -13 -12 -22 -22 -16 -10 6 -1 24 13 24 5 0 9 -4 9
-8z"/>
<path d="M5953 203 c-23 -9 -14 -19 16 -19 20 0 27 4 24 13 -5 13 -18 15 -40
6z"/>
<path d="M6186 229 c2 -4 15 -9 28 -11 17 -4 23 -1 19 8 -3 8 -15 13 -28 12
-13 -1 -22 -5 -19 -9z"/>
<path d="M7060 231 c0 -5 11 -11 23 -13 14 -3 24 0 24 7 0 6 -11 12 -24 13
-12 1 -23 -2 -23 -7z"/>
</g>
</svg>
